HIERARCHY
ROOT Hips
{
	OFFSET 0.373046 105.988304 -1.111724
	CHANNELS 6 Xposition Yposition Zposition Xrotation Yrotation Zrotation
	JOINT Chest
	{
		OFFSET 0.160640 13.573860 1.370694
		CHANNELS 3 Xrotation Yrotation Zrotation
		JOINT Chest2
		{
			OFFSET -1.260825 21.295502 1.994665
			CHANNELS 3 Xrotation Yrotation Zrotation
			JOINT Chest3
			{
				OFFSET -0.826283 14.901733 0.274635
				CHANNELS 3 Xrotation Yrotation Zrotation
				JOINT Neck
				{
					OFFSET -0.010474 17.216522 1.485648
					CHANNELS 3 Xrotation Yrotation Zrotation
					JOINT Head
					{
						OFFSET -0.464879 10.440170 0.783823
						CHANNELS 3 Xrotation Yrotation Zrotation
						End Site
						{
							OFFSET -0.464076 10.445419 0.710926
						}
					}
				}
				JOINT LeftCollar
				{
					OFFSET 4.407121 12.992020 3.686357
					CHANNELS 3 Xrotation Yrotation Zrotation
					JOINT LeftUpArm
					{
						OFFSET 13.978285 -5.397659 -9.163643
						CHANNELS 3 Xrotation Yrotation Zrotation
						JOINT LeftLowArm
						{
							OFFSET 4.342115 -33.478394 -0.267129
							CHANNELS 3 Xrotation Yrotation Zrotation
							JOINT LeftHand
							{
								OFFSET 0.051487 -28.089195 10.580256
								CHANNELS 3 Xrotation Yrotation Zrotation
								End Site
								{
									OFFSET 0.011261 -6.139061 2.312376
								}
							}
						}
					}
				}
				JOINT RightCollar
				{
					OFFSET -3.985160 12.932129 4.322854
					CHANNELS 3 Xrotation Yrotation Zrotation
					JOINT RightUpArm
					{
						OFFSET -14.744070 -6.256882 -7.208348
						CHANNELS 3 Xrotation Yrotation Zrotation
						JOINT RightLowArm
						{
							OFFSET -5.164362 -33.353470 -0.780979
							CHANNELS 3 Xrotation Yrotation Zrotation
							JOINT RightHand
							{
								OFFSET 2.116673 -28.296463 9.786972
								CHANNELS 3 Xrotation Yrotation Zrotation
								End Site
								{
									OFFSET 0.462620 -6.184479 2.139033
								}
							}
						}
					}
				}
			}
		}
	}
	JOINT LeftUpLeg
	{
		OFFSET 10.020185 -0.114311 -0.044387
		CHANNELS 3 Xrotation Yrotation Zrotation
		JOINT LeftLowLeg
		{
			OFFSET 3.346294 -47.092426 -3.885335
			CHANNELS 3 Xrotation Yrotation Zrotation
			JOINT LeftFoot
			{
				OFFSET -0.300664 -43.307194 -11.178791
				CHANNELS 3 Xrotation Yrotation Zrotation
				JOINT LeftToe
				{
					OFFSET 0.727195 -15.623641 17.746344
					CHANNELS 3 Xrotation Yrotation Zrotation
					End Site
					{
						OFFSET 2.200262 -0.840467 23.537447
					}
				}
			}
		}
	}
	JOINT RightUpLeg
	{
		OFFSET -10.020191 0.114113 0.044367
		CHANNELS 3 Xrotation Yrotation Zrotation
		JOINT RightLowLeg
		{
			OFFSET -1.289510 -47.284271 2.558751
			CHANNELS 3 Xrotation Yrotation Zrotation
			JOINT RightFoot
			{
				OFFSET 0.165418 -42.723190 -13.239399
				CHANNELS 3 Xrotation Yrotation Zrotation
				JOINT RightToe
				{
					OFFSET 0.066578 -16.900301 16.550896
					CHANNELS 3 Xrotation Yrotation Zrotation
					End Site
					{
						OFFSET -2.598176 -2.727184 23.353117
					}
				}
			}
		}
	}
}
MOTION
Frames: 12
Frame Time: 0.033333
0.373046 105.988304 -1.111724 0.000000 -0.000000 0.000000 -0.000000 -0.000000 0.000000 0.000000 -0.000001 0.000000 0.000001 -0.000000 -0.000000 0.000001 -0.000000 0.000000 -0.000001 0.000000 0.000000 0.000002 -0.000001 -0.000002 0.000001 0.000004 -0.000002 0.000003 0.000000 -0.000001 -0.000000 -0.000004 0.000001 0.000000 0.000000 -0.000003 -0.000000 0.000001 -0.000001 -0.000000 -0.000003 -0.000000 -0.000000 -0.000003 0.000000 0.000001 -0.000000 0.000000 0.000000 0.000000 -0.000000 -0.000000 0.000000 -0.000000 0.000000 0.000000 0.000001 0.000001 0.000000 0.000001 -0.000001 0.000001 -0.000000 0.000000 0.000000 -0.000001 -0.000001 0.000000 -0.000000 
0.364724 105.990395 -1.110066 0.003865 0.201573 0.019729 0.335883 0.020044 -0.099915 -0.501139 -0.071339 0.097729 0.142262 0.040225 -0.071630 0.623926 -0.187783 0.033007 -0.000001 0.000000 0.000000 -0.083031 -0.044272 -0.049695 0.221485 0.350837 0.209268 -0.219245 0.179908 -0.349859 -0.000002 -0.000001 0.000001 -0.097504 -0.209546 0.228193 -0.023431 -0.171137 -0.151987 0.136983 -0.206876 0.128283 0.000003 -0.000002 -0.000000 -0.237149 -0.033377 0.054782 0.218345 0.059983 -0.060131 -0.164442 0.219455 0.143001 -0.000000 0.000000 0.000001 0.111179 0.005204 0.059364 -0.052974 -0.046886 -0.050038 0.083089 -0.067506 -0.016902 -0.000000 -0.000000 -0.000000 
0.354038 105.996796 -1.118385 0.018880 0.166621 -0.018035 0.015575 0.028700 -0.109709 -0.276588 -0.097419 0.154334 0.138347 0.159798 -0.106724 1.073188 -0.219808 0.077062 -0.000001 0.000000 0.000000 0.006114 -0.508143 -0.040878 0.054016 0.179834 0.213064 -0.235912 0.167306 -0.135188 -0.000001 -0.000001 0.000002 -0.085073 -0.288368 0.293441 0.000474 -0.121532 -0.202267 -0.121082 -0.176961 0.126193 -0.000001 0.000000 -0.000001 -0.412275 -0.092414 0.140627 0.380654 0.067362 -0.101787 0.102337 0.199711 0.128090 -0.000000 -0.000000 0.000002 0.262441 0.038659 0.141839 -0.131490 -0.052825 -0.115144 0.251548 -0.028906 0.009729 0.000000 -0.000000 0.000001 
0.344562 105.999748 -1.125798 0.030512 -0.215996 0.022949 0.341273 0.036216 -0.182007 -0.369320 0.041644 -0.025198 -0.036352 0.423578 0.101153 1.301625 -0.198001 0.130619 -0.000000 0.000000 0.000000 -0.027995 -0.400353 -0.265144 0.148185 0.178367 0.463079 -0.749111 0.195066 -0.225953 0.000001 -0.000002 0.000000 -0.132925 -0.467547 0.393963 0.002123 -0.079413 -0.349623 -0.296107 -0.328796 0.270962 0.000001 -0.000000 -0.000001 -0.509963 -0.164111 0.075908 0.445962 -0.002892 -0.214363 -0.171542 0.798904 0.401500 0.000000 -0.000000 0.000000 0.123589 0.094994 0.125944 0.096562 0.045769 -0.169270 0.178198 0.331310 -0.077165 -0.000000 -0.000000 0.000002 
0.337308 106.003906 -1.128977 -0.102988 -0.247242 0.017894 0.391866 0.027665 -0.172036 -0.803363 0.053942 -0.022915 0.420964 0.459510 0.071211 1.761660 -0.252276 0.206845 -0.000001 0.000000 -0.000000 0.092704 -0.348765 -0.248092 0.100978 -0.069734 0.369030 -0.665753 0.041878 -0.010601 -0.000003 0.000001 -0.000001 -0.054724 -0.674170 0.340789 -0.209666 0.334869 -0.264788 -0.181964 -0.153196 0.179177 -0.000000 -0.000004 -0.000000 -0.451364 -0.176838 0.021540 0.418909 -0.075265 -0.141403 0.048532 1.136727 0.495099 0.000000 0.000000 0.000001 0.737562 0.102634 0.079094 -0.377837 -0.000531 -0.076266 0.191617 0.375189 -0.101587 -0.000001 -0.000000 0.000001 
0.323628 106.012573 -1.136288 -0.562467 -0.121009 -0.079840 0.909648 0.008752 -0.112214 -0.904155 -0.008315 0.085185 0.386404 0.141193 -0.057987 1.945674 -0.225907 0.165564 -0.000001 0.000000 0.000000 0.032504 0.096471 -0.335637 0.428478 0.107041 0.552265 -0.930296 -0.129285 -0.060730 -0.000001 0.000002 -0.000000 0.014540 -0.339064 0.461020 -0.113003 0.274081 -0.333123 -0.425983 -0.095350 0.226137 0.000004 -0.000001 0.000001 0.047078 -0.159127 0.208922 0.216357 0.003861 -0.178934 0.258798 1.021127 0.447306 -0.000000 -0.000001 0.000002 1.640298 0.037264 0.152555 -1.381056 -0.175481 -0.034254 0.354284 0.334107 -0.065128 -0.000000 -0.000000 0.000001 
0.309372 106.017990 -1.136448 -0.342123 -0.147305 -0.108336 0.840045 0.021799 -0.124871 -1.270668 -0.030507 0.098794 0.579250 0.344822 -0.033574 2.343904 -0.358571 0.216174 -0.000000 0.000000 0.000000 -0.008109 0.000045 -0.289449 0.391068 0.206739 0.562637 -0.692266 0.013353 -0.312588 -0.000001 0.000002 0.000000 -0.082764 -0.636413 0.511550 -0.053265 0.147855 -0.336191 -0.302200 -0.222117 0.338991 -0.000001 0.000002 -0.000002 -0.302215 -0.161626 0.243531 0.416742 -0.024279 -0.191151 0.294163 1.108857 0.486386 -0.000000 -0.000000 0.000000 1.643294 0.013413 0.165770 -1.622999 -0.225686 0.037397 0.595556 0.560370 -0.121849 0.000000 -0.000001 -0.000000 
0.295055 106.029495 -1.136606 -0.803815 -0.157759 -0.112586 1.353230 0.018220 -0.150449 -1.350331 -0.008849 0.068817 0.450637 0.406424 0.041853 2.563185 -0.344174 0.194445 -0.000001 0.000000 0.000000 -0.035409 0.125918 -0.385216 0.337995 0.215922 0.573842 -0.294048 0.087112 -0.294215 -0.000001 -0.000000 -0.000000 -0.043361 -0.630231 0.656711 -0.122575 0.146914 -0.459430 -0.189140 -0.204533 0.339573 0.000001 -0.000002 -0.000002 -0.040651 -0.109010 0.254256 0.578971 0.009865 -0.218046 0.390470 1.257570 0.530840 0.000000 -0.000000 0.000001 2.076776 -0.045419 0.187962 -1.607565 -0.221721 0.048489 0.461627 0.622597 -0.137873 -0.000001 -0.000001 0.000001 
0.281534 106.037796 -1.143003 -0.574665 -0.310958 -0.081996 1.043039 0.026082 -0.162610 -1.317481 0.068164 -0.016648 0.538407 0.594292 0.120688 2.559918 -0.349586 0.259910 -0.000001 0.000000 0.000000 -0.025109 -0.080399 -0.489139 0.243905 0.042426 0.629239 -0.029960 -0.011263 -0.170387 -0.000000 0.000002 -0.000000 -0.071671 -1.006165 0.684532 -0.111131 0.202747 -0.461131 -0.651337 -0.041408 0.350143 -0.000000 0.000002 -0.000002 -0.156156 -0.147145 0.238271 0.626799 0.071522 -0.261180 0.324253 1.120396 0.491140 0.000000 -0.000000 0.000001 1.953231 -0.012316 0.143169 -1.854377 -0.254392 0.039250 0.601712 0.691398 -0.088050 -0.000001 -0.000000 -0.000000 
0.270411 106.046844 -1.151839 -0.619249 -0.206697 -0.127820 0.948937 0.026978 -0.100457 -0.757174 0.052600 -0.008726 0.184021 0.460755 0.103556 2.567593 -0.247644 0.144615 -0.000000 0.000000 0.000000 -0.157183 0.099072 -0.581201 0.340681 0.212293 0.692200 -0.756942 -0.002621 -0.312115 0.000001 0.000002 0.000001 -0.103928 -0.612321 0.795992 -0.057297 0.010011 -0.597376 -1.140113 -0.091280 0.398985 -0.000000 -0.000002 -0.000001 -0.337044 -0.173965 0.304166 1.029205 0.089666 -0.260298 0.047207 0.905054 0.436600 0.000000 0.000001 0.000002 1.697479 -0.003244 0.203749 -1.592836 -0.249975 0.028406 0.536798 0.642284 -0.050286 0.000001 0.000000 0.000002 
0.260632 106.058495 -1.161426 -0.648415 -0.176027 -0.142131 0.579606 0.029186 -0.053815 -0.193558 0.012491 0.059078 -0.342601 0.345418 -0.006803 2.746563 -0.115855 0.071465 -0.000001 0.000000 -0.000000 -0.032090 -0.164880 -0.760286 -0.051013 -0.145057 0.744744 0.117827 0.076628 0.125803 0.000001 0.000000 0.000001 0.007526 -0.533025 0.902647 -0.272001 0.238364 -0.591881 -0.813066 -0.081976 0.213388 0.000001 0.000002 -0.000000 -0.508912 -0.162314 0.350182 0.972226 0.078529 -0.337332 0.058221 0.993664 0.456595 -0.000000 -0.000000 0.000001 1.764285 -0.037889 0.135016 -1.636786 -0.238079 0.181581 0.333530 0.660025 -0.090962 0.000000 -0.000001 0.000001 
0.255628 106.070183 -1.172177 -0.527650 -0.168704 -0.128147 0.429004 0.030556 -0.056168 -0.528331 0.020087 0.068707 0.165997 0.293108 -0.050005 2.604050 -0.188378 0.164077 -0.000001 0.000000 0.000000 0.017878 -0.300591 -0.833746 -0.034775 -0.255662 0.741309 -0.264543 -0.086214 0.357007 -0.000002 0.000000 0.000001 0.056671 -0.648255 0.946706 -0.206883 0.317801 -0.576828 -0.884731 0.039534 0.075973 -0.000000 0.000002 -0.000002 -0.632369 -0.174298 0.304294 0.972271 0.029607 -0.318890 0.125668 1.004395 0.462194 -0.000000 -0.000000 0.000001 1.851502 -0.010236 0.087199 -1.666768 -0.204084 0.190037 0.405167 0.579556 -0.069608 -0.000001 -0.000000 -0.000000 
